<?xml version="1.0" encoding="utf-8"?>
<!-- Generator: Adobe Illustrator 15.0.0, SVG Export Plug-In . SVG Version: 6.00 Build 0)  -->
<!DOCTYPE svg PUBLIC "-//W3C//DTD SVG 1.0//EN" "http://www.w3.org/TR/2001/REC-SVG-20010904/DTD/svg10.dtd">
<svg version="1.0" id="Layer_1" xmlns="http://www.w3.org/2000/svg" xmlns:xlink="http://www.w3.org/1999/xlink" x="0px" y="0px"
	 width="650px" height="650px" viewBox="0 0 650 650" enable-background="new 0 0 650 650" xml:space="preserve">
<g>
	<path fill="#E62117" d="M612.81,147.1L524.8,57.21c-16.85-9.36-29.96-1.87-29.96,18.73v52.43h-280.9
		C41.66,128.37,45.4,248.22,45.4,259.45v131.09c0,0,74.91-73.03,74.91-74.91v-54.31c0,1.87,3.75-58.05,93.63-58.05h280.9v52.43
		c0,20.6,13.11,28.09,29.96,18.73l88.01-89.89C625.92,169.57,625.92,160.21,612.81,147.1z M605.32,259.46
		c0,0-74.91,73.03-74.91,74.91v54.31c0-1.87-3.75,58.05-93.63,58.05h-280.9v-52.44c0-20.6-13.11-28.09-29.96-18.73L37.9,465.45
		c-13.11,13.11-14.98,22.47,0,37.45l88.02,89.89c16.85,9.36,29.96,1.87,29.96-18.73v-52.44h280.9
		c172.28,0,168.54-119.85,168.54-131.09V259.46L605.32,259.46z"/>
</g>
</svg>
